# xmcd CD database file
#
# Track frame offsets:
#	150
#	21760
#	65575
#	86310
#	110710
#	166145
#	190185
#	206905
#	217230
#	228645
#	244665
#	262885
#	285640
#	303725
#
# Disc length: 4181 seconds
#
# Revision: 0
# Processed by: cddbd v1.5.2PL0 Copyright (c) Steve Scherf et al.
# Submitted via: CDex 1.51
#
DISCID=ce10530e
DTITLE=Bud Shank - Bob Cooper - Vol 2 European Tour '58 CD2
DYEAR=1958
DGENRE=Jazz
TTITLE0=Do nothin' till you hear from me
TTITLE1=Scrapple from the apple
TTITLE2='Round midnight
TTITLE3=The way you look tonight
TTITLE4=All the things you are
TTITLE5=The nearness of you - Bag's groove
TTITLE6=All the things you are
TTITLE7=Crazy rhythm
TTITLE8=Lover man
TTITLE9=The lamp is low
TTITLE10=These foolish things
TTITLE11=Do nothin' till you hear from me
TTITLE12=Polka dots and moonbeams
TTITLE13=All of you
EXTD=YEAR: 1958
EXTT0=
EXTT1=
EXTT2=
EXTT3=
EXTT4=
EXTT5=
EXTT6=
EXTT7=
EXTT8=
EXTT9=
EXTT10=
EXTT11=
EXTT12=
EXTT13=
PLAYORDER=
